<svg width="40" height="40" viewBox="0 0 40 40" fill="none" xmlns="http://www.w3.org/2000/svg">
<circle cx="20" cy="20" r="20" fill="#F36B6B"/>
<path d="M25.2692 15.867C21.1503 13.4779 23.0818 10.1058 23.1648 9.96568C23.285 9.76622 23.2846 9.52082 23.1637 9.32171C23.0429 9.12259 22.8199 9 22.5786 9C20.4584 9 18.7981 9.57432 17.6439 10.7071C15.6717 12.6426 15.7632 15.655 15.8022 16.9414C15.8066 17.0839 15.8103 17.207 15.8103 17.2985C15.8103 18.2536 15.971 19.1353 16.1129 19.9133C16.2043 20.4146 16.2832 20.8476 16.2972 21.1879C16.3122 21.5524 16.2424 21.6358 16.2395 21.6392C16.2295 21.6505 16.1466 21.6925 15.9224 21.6925C15.6667 21.6925 15.4782 21.6129 15.3111 21.4343C14.6587 20.7368 14.6136 18.8324 14.7383 17.7963C14.7606 17.6136 14.7 17.4306 14.5717 17.2932C14.4434 17.1559 14.2597 17.0774 14.0669 17.0774C12.3116 17.0774 11 19.8139 11 22.2608C11 23.411 11.2427 24.5377 11.7213 25.6097C12.184 26.6461 12.8437 27.5814 13.6824 28.3896C15.4288 30.073 17.7315 31 20.1664 31C22.611 31 24.9132 30.0861 26.6488 28.4266C28.3799 26.7714 29.3333 24.5817 29.3333 22.2607C29.3333 19.2992 26.9029 16.8146 25.2692 15.867Z" fill="white"/>
</svg>
