<svg width="40" height="40" viewBox="0 0 40 40" fill="none" xmlns="http://www.w3.org/2000/svg">
<circle cx="20" cy="20" r="20" fill="#E886C1"/>
<path d="M13.721 23.1505L10.2876 27.5376C9.82281 28.1315 10.246 29 11.0001 29L29.2054 29C29.9201 29 30.3527 28.2102 29.9677 27.608L27.2987 23.432C26.6337 22.3915 25.4841 21.7619 24.2493 21.7619L16.571 21.7619C15.458 21.7619 14.4069 22.274 13.721 23.1505Z" fill="white" stroke="white" stroke-width="1.35714" stroke-linecap="round"/>
<path d="M20.0004 19.0476C22.4975 19.0476 24.5242 17.021 24.5242 14.5238C24.5242 12.0267 22.4975 10 20.0004 10C17.5032 10 15.4766 12.0267 15.4766 14.5238C15.4766 17.021 17.5032 19.0476 20.0004 19.0476Z" fill="white"/>
</svg>
