<svg width="40" height="40" viewBox="0 0 40 40" fill="none" xmlns="http://www.w3.org/2000/svg">
<circle cx="20" cy="20" r="20" fill="#FBCD59"/>
<path d="M9.00043 24.0972C9.15634 23.7126 9.43499 23.5722 9.85404 23.5778C11.3119 23.5959 12.7702 23.5852 14.228 23.5847C14.3279 23.5847 14.4279 23.5791 14.5278 23.5765C14.6135 23.5787 14.6992 23.5826 14.7849 23.5826C18.2613 23.5826 21.7378 23.5826 25.2142 23.5826C25.2999 23.5826 25.3857 23.5787 25.4714 23.5765C26.6092 23.5796 27.7471 23.5826 28.8849 23.5852C29.3432 23.586 29.8023 23.6045 30.2588 23.58C30.7149 23.5554 30.9987 23.9293 31 24.2419C31.0017 24.6119 30.6968 24.8725 30.2575 24.8725C24.0665 24.8725 17.8759 24.8725 11.6849 24.8725C11.091 24.8725 10.4958 24.8535 9.90314 24.8789C9.49011 24.8966 9.17399 24.7975 9 24.3983V24.0981L9.00043 24.0972Z" fill="white"/>
<path d="M20.1727 12C20.547 12.1787 20.6749 12.4789 20.6469 12.8829C20.6241 13.2162 20.6448 13.5526 20.6422 13.8872C20.6387 14.2839 20.3674 14.5712 20.0009 14.5712C19.6344 14.5712 19.3631 14.2843 19.3596 13.8877C19.357 13.5526 19.3781 13.2162 19.3544 12.8833C19.3256 12.4785 19.4561 12.18 19.8291 12.0004H20.1727V12Z" fill="white"/>
<path d="M25.471 23.5758C25.3853 23.578 25.2996 23.5819 25.2139 23.5819C21.7374 23.5819 18.261 23.5819 14.7845 23.5819C14.6988 23.5819 14.6131 23.578 14.5274 23.5758C13.4296 20.344 15.2092 16.9821 18.5069 16.0587C21.6293 15.1845 25.0011 17.2298 25.6648 20.3983C25.8905 21.4763 25.834 22.5349 25.471 23.5758Z" fill="white"/>
<path d="M12.1746 16.5068C12.3077 16.503 12.4283 16.5456 12.5415 16.6106C12.8947 16.8139 13.2491 17.015 13.5993 17.2235C13.9322 17.422 14.0377 17.7928 13.8599 18.1081C13.6841 18.4199 13.2987 18.5228 12.9658 18.3372C12.5915 18.1283 12.2185 17.916 11.852 17.6934C11.5915 17.5353 11.4911 17.2506 11.5725 16.9702C11.6518 16.6989 11.896 16.5107 12.1746 16.5068Z" fill="white"/>
<path d="M16.7735 14.9475C16.7726 15.2386 16.5978 15.4811 16.3398 15.5681C16.0697 15.659 15.7696 15.5797 15.6184 15.3381C15.3695 14.9406 15.1317 14.5345 14.9125 14.1201C14.7566 13.8247 14.8819 13.4664 15.1627 13.301C15.4392 13.1382 15.8126 13.1907 15.9875 13.4608C16.2511 13.8678 16.4828 14.295 16.7218 14.7171C16.7627 14.7894 16.7838 14.8773 16.7739 14.9475H16.7735Z" fill="white"/>
<path d="M24.4842 13.2088C24.9842 13.2161 25.2986 13.7037 25.0837 14.1253C24.8739 14.5362 24.6366 14.9345 24.3911 15.3256C24.2085 15.6159 23.8269 15.6861 23.5371 15.5138C23.2589 15.3484 23.1361 14.9854 23.292 14.6925C23.51 14.2833 23.7477 13.8841 23.9893 13.4883C24.1047 13.2988 24.2972 13.2196 24.4846 13.2092L24.4842 13.2088Z" fill="white"/>
<path d="M28.4571 17.1961C28.4248 17.3714 28.3516 17.5708 28.1548 17.6888C27.7758 17.9158 27.3946 18.1401 27.0061 18.3503C26.6823 18.5256 26.3054 18.4089 26.137 18.1018C25.9665 17.7913 26.0664 17.4231 26.3855 17.2323C26.7525 17.0131 27.122 16.7969 27.4975 16.5927C27.9416 16.3515 28.4636 16.6621 28.4575 17.1961H28.4571Z" fill="white"/>
<path d="M11.6233 22.2964C11.4088 22.2964 11.1943 22.3007 10.9798 22.2955C10.6146 22.286 10.3364 22.01 10.3321 21.6598C10.3278 21.3015 10.6107 21.0151 10.9867 21.0099C11.4083 21.0043 11.8304 21.0043 12.2521 21.0099C12.6315 21.0147 12.9127 21.2959 12.9106 21.656C12.9084 22.016 12.6267 22.2891 12.2452 22.2959C12.038 22.2998 11.8304 22.2968 11.6233 22.2964Z" fill="white"/>
<path d="M28.3815 22.2962C28.167 22.2962 27.9525 22.3005 27.7381 22.2954C27.3724 22.2863 27.0942 22.0102 27.0899 21.6601C27.0856 21.3018 27.3681 21.0149 27.7441 21.0098C28.1657 21.0042 28.5878 21.0046 29.0094 21.0098C29.3889 21.0145 29.6701 21.2949 29.6684 21.6554C29.6667 22.0154 29.385 22.2889 29.0034 22.2958C28.7962 22.2997 28.5887 22.2966 28.3815 22.2962Z" fill="white"/>
<rect x="13.083" y="25.9978" width="13.998" height="1.1665" rx="0.58325" fill="white"/>
</svg>
