<svg width="32" height="32" viewBox="0 0 32 32" fill="none" xmlns="http://www.w3.org/2000/svg">
<circle cx="16" cy="16" r="16" fill="#00ADA4"/>
<path fill-rule="evenodd" clip-rule="evenodd" d="M19.0525 11.069C19.0525 12.7643 17.6782 14.1379 15.983 14.1379C14.2883 14.1379 12.9141 12.7643 12.9141 11.069C12.9141 9.37438 14.2883 8.00012 15.983 8.00012C17.6782 8.00012 19.0525 9.37438 19.0525 11.069Z" fill="white"/>
<mask id="mask0_4347_20481" style="mask-type:alpha" maskUnits="userSpaceOnUse" x="8" y="15" width="16" height="9">
<path fill-rule="evenodd" clip-rule="evenodd" d="M8 15.0099H24V23.2942H8V15.0099Z" fill="white"/>
</mask>
<g mask="url(#mask0_4347_20481)">
<path fill-rule="evenodd" clip-rule="evenodd" d="M20.0959 23.2944H11.9046C9.74726 23.2944 8 21.8991 8 20.1791V20.0425C8 17.263 10.824 15.0099 14.3077 15.0099H17.6921C21.1766 15.0099 24.0005 17.263 24.0005 20.0425V20.1791C24.0005 21.8991 22.2517 23.2944 20.0959 23.2944Z" fill="white"/>
</g>
</svg>
