<svg width="32" height="32" viewBox="0 0 32 32" fill="none" xmlns="http://www.w3.org/2000/svg">
<circle cx="16" cy="16" r="16" fill="#4D66C6"/>
<path d="M8.64959 21.2542L9.15616 22.7136C9.25724 23.0048 9.53168 23.2001 9.83995 23.2001L22.1617 23.2001C22.4699 23.2001 22.7444 23.0048 22.8455 22.7136L23.352 21.2542C24.005 19.3731 22.6081 17.4096 20.6169 17.4096L11.3847 17.4096C9.39352 17.4096 7.99664 19.3731 8.64959 21.2542Z" fill="white" stroke="white" stroke-width="1.08571" stroke-linecap="round"/>
<path d="M15.9999 15.2382C17.9976 15.2382 19.619 13.6169 19.619 11.6192C19.619 9.62146 17.9976 8.00012 15.9999 8.00012C14.0022 8.00012 12.3809 9.62146 12.3809 11.6192C12.3809 13.6169 14.0022 15.2382 15.9999 15.2382Z" fill="white"/>
</svg>
