<svg width="40" height="40" viewBox="0 0 40 40" fill="none" xmlns="http://www.w3.org/2000/svg">
<circle cx="20" cy="20" r="20" fill="#4D66C6"/>
<path d="M17.6855 10.9998H17.9316C18.416 11.2296 18.4875 11.5796 18.1344 11.991C18.0999 12.0308 18.0647 12.0703 18.0316 12.1109C16.7187 13.7225 16.185 15.564 16.4755 17.6209C16.723 19.3736 17.5443 20.8333 18.9005 21.9677C20.4889 23.2963 22.3302 23.8187 24.3803 23.5459C25.7544 23.3629 26.9637 22.7912 28.0107 21.8789C28.085 21.814 28.1635 21.7467 28.2519 21.7068C28.5462 21.5732 28.8208 21.7149 29 22.0819V22.3283C28.9782 22.3815 28.9518 22.4337 28.9356 22.4883C27.8005 26.3208 23.9944 29.4715 19.1106 28.941C16.6314 28.6717 14.593 27.5211 13.0387 25.5774C11.2822 23.382 10.6408 20.8633 11.1921 18.1028C11.8026 15.0451 13.5727 12.8483 16.3793 11.5C16.7983 11.2987 17.2493 11.1647 17.6855 10.9998Z" fill="white"/>
<path d="M22.2678 20.3281C22.096 20.3246 21.933 20.2114 21.8298 20.0041C21.6446 19.6322 21.4633 19.2586 21.2693 18.8913C21.2267 18.8106 21.1496 18.733 21.069 18.6903C20.7127 18.5014 20.3512 18.3223 19.9882 18.1471C19.7667 18.0403 19.6337 17.8757 19.6358 17.6279C19.6379 17.3871 19.7724 17.2281 19.9854 17.1242C20.3427 16.9504 20.7 16.7762 21.0503 16.5887C21.1401 16.5408 21.2267 16.4551 21.275 16.3656C21.463 16.0152 21.6379 15.6577 21.8111 15.2996C21.9164 15.0821 22.0801 14.9679 22.322 14.9668C22.5635 14.9657 22.7318 15.0754 22.8378 15.2925C23.0152 15.6549 23.1926 16.0176 23.381 16.3744C23.4236 16.4551 23.4996 16.5337 23.5799 16.5764C23.9305 16.7632 24.2865 16.9412 24.6449 17.1125C24.8713 17.2207 25.0177 17.3825 25.017 17.6381C25.0163 17.8947 24.8639 18.0534 24.6399 18.1612C24.2823 18.334 23.9267 18.5116 23.5753 18.6974C23.4993 18.7376 23.4253 18.8091 23.3856 18.8846C23.1898 19.2572 23.0082 19.6375 22.8166 20.0126C22.7068 20.2276 22.5459 20.3263 22.2671 20.3281H22.2678Z" fill="white"/>
<path d="M26.0898 13.913C25.9088 13.913 25.7571 13.9155 25.6054 13.9127C25.2561 13.906 25.0192 13.6849 25.0195 13.3694C25.0195 13.0515 25.2572 12.8329 25.6061 12.8305C25.7578 12.8294 25.9095 12.8305 26.0898 12.8305C26.0898 12.6669 26.0884 12.5114 26.0898 12.3563C26.0933 11.9978 26.3186 11.7486 26.6348 11.7514C26.952 11.7542 27.1689 12.0021 27.1706 12.3637C27.1713 12.51 27.1706 12.6563 27.1706 12.8301C27.3382 12.8301 27.4991 12.829 27.6603 12.8301C28.0032 12.8326 28.25 13.0613 28.2476 13.373C28.2451 13.6786 28.0075 13.9028 27.6712 13.9119C27.5135 13.9162 27.3554 13.9127 27.1706 13.9127C27.1706 14.0759 27.1717 14.2317 27.1706 14.3875C27.1682 14.741 26.9555 14.979 26.6401 14.9832C26.3165 14.9875 26.094 14.7474 26.0898 14.3878C26.088 14.2366 26.0898 14.0854 26.0898 13.913Z" fill="white"/>
</svg>
