<svg width="40" height="40" viewBox="0 0 40 40" fill="none" xmlns="http://www.w3.org/2000/svg">
<circle cx="20" cy="20" r="20" fill="#E886C1"/>
<circle cx="20" cy="20" r="20" fill="#E886C1"/>
<path d="M20.1476 14.4029C17.1015 14.4028 14.632 16.872 14.6318 19.9181C14.6317 22.9641 17.1008 25.4337 20.1469 25.4339C23.1921 25.4308 25.6594 22.9637 25.6628 19.9193C25.6628 16.8724 23.1936 14.403 20.1476 14.4029Z" fill="white"/>
<path d="M20.3882 9C20.7944 9.17307 20.9433 9.49812 20.928 9.96051C20.9064 10.6179 20.9268 11.2766 20.914 11.9349C20.9076 12.2544 20.7023 12.5153 20.4334 12.6018C20.1484 12.6935 19.8319 12.5975 19.6754 12.3263C19.5926 12.1825 19.5397 11.9952 19.5357 11.826C19.5201 11.1539 19.5317 10.481 19.5285 9.80853C19.5269 9.39566 19.7322 9.14896 20.0684 9.00043H20.3882V9Z" fill="white"/>
<path d="M30.4564 20.1731C30.2979 20.6135 29.9929 20.7707 29.5643 20.7556C28.9796 20.7349 28.3933 20.7586 27.8082 20.7474C27.3075 20.738 26.9918 20.3139 27.099 19.8209C27.1623 19.5312 27.3924 19.2767 27.6685 19.2703C28.3997 19.2539 29.1317 19.2513 29.8625 19.2707C30.1782 19.2793 30.3371 19.5445 30.4564 19.8287V20.1727V20.1731Z" fill="white"/>
<path d="M20.9232 29.1959C20.9232 29.5321 20.9288 29.8684 20.922 30.2046C20.9128 30.6748 20.6231 31.0011 20.2257 30.9998C19.8367 30.9985 19.5401 30.6799 19.5333 30.2219C19.5229 29.5283 19.5225 28.8343 19.5337 28.1407C19.5409 27.6852 19.8431 27.3649 20.2297 27.3662C20.6183 27.3679 20.9104 27.6899 20.9212 28.1446C20.9296 28.495 20.9228 28.8455 20.9232 29.1959Z" fill="white"/>
<path d="M27.6667 27.1643C27.6515 27.5505 27.5258 27.7809 27.2709 27.9169C27.0148 28.0534 26.747 28.0413 26.5433 27.8334C26.0227 27.3012 25.5132 26.7558 25.0198 26.1944C24.7784 25.9197 24.8196 25.4887 25.0646 25.2188C25.3159 24.9415 25.7241 24.8894 25.9859 25.1546C26.5085 25.6842 27.0124 26.2361 27.509 26.7945C27.6059 26.9034 27.6339 27.0838 27.6671 27.1652L27.6667 27.1643Z" fill="white"/>
<path d="M13.576 28.0037C13.1902 27.9822 12.9717 27.8349 12.8549 27.5486C12.7344 27.2529 12.7796 26.9678 12.9881 26.7336C13.2967 26.3875 13.6161 26.053 13.9314 25.7137C14.0915 25.5415 14.2476 25.365 14.4141 25.2005C14.7062 24.9121 15.114 24.9198 15.3842 25.21C15.6547 25.5002 15.6695 25.9462 15.3942 26.2523C14.9267 26.7719 14.4533 27.2851 13.9654 27.7824C13.8442 27.906 13.6597 27.9572 13.5756 28.0033L13.576 28.0037Z" fill="white"/>
<path d="M12.791 12.8494C12.8014 12.4641 12.9199 12.2359 13.1632 12.096C13.4145 11.9509 13.6891 11.9478 13.8928 12.1532C14.4259 12.6914 14.9453 13.2472 15.446 13.8206C15.6853 14.0945 15.6309 14.5297 15.3812 14.7949C15.1254 15.0662 14.72 15.1049 14.4583 14.8376C13.9472 14.3153 13.451 13.7759 12.9635 13.2278C12.8615 13.1133 12.8262 12.9303 12.791 12.8498V12.8494Z" fill="white"/>
<path d="M26.864 11.9979C27.2502 12.0182 27.4651 12.1529 27.5899 12.4285C27.7148 12.7044 27.702 12.9916 27.5075 13.2107C27.012 13.77 26.5058 14.3193 25.9827 14.8489C25.723 15.1119 25.3068 15.0568 25.0614 14.7809C24.8081 14.4959 24.7901 14.0666 25.0442 13.7696C25.3188 13.4484 25.6137 13.1474 25.9003 12.8383C26.0836 12.6407 26.2557 12.428 26.455 12.2519C26.597 12.1267 26.7763 12.0509 26.8636 11.9984L26.864 11.9979Z" fill="white"/>
<path d="M11.6891 20.7412C11.3369 20.7412 10.9839 20.755 10.6321 20.7369C10.3164 20.7209 10.0738 20.4687 10.0126 20.1384C9.95337 19.8198 10.107 19.4827 10.388 19.3359C10.4636 19.2963 10.5521 19.2645 10.6345 19.264C11.3393 19.2584 12.044 19.2477 12.7484 19.2662C13.1078 19.2757 13.3739 19.6102 13.3795 19.9921C13.3851 20.3791 13.1134 20.7029 12.7456 20.7403C12.64 20.7511 12.5331 20.7494 12.4266 20.7502C12.1805 20.7515 11.9344 20.7502 11.6883 20.7502V20.7407L11.6891 20.7412Z" fill="white"/>
</svg>
